<svg width="163" height="141" viewBox="0 0 163 141" fill="none" xmlns="http://www.w3.org/2000/svg">
<path d="M162.988 81.4451C162.988 87.1741 162.239 92.6111 160.742 97.7541C159.31 102.832 157.259 107.552 154.59 111.914C151.92 116.276 148.763 120.182 145.117 123.633C141.471 127.083 137.467 130.046 133.105 132.519C128.808 134.928 124.219 136.784 119.336 138.086C114.453 139.388 109.472 140.039 104.394 140.039H58.5938C53.4505 140.039 48.4375 139.388 43.5547 138.086C38.6719 136.784 34.0495 134.928 29.6875 132.519C25.3906 130.046 21.4193 127.083 17.7734 123.633C14.1276 120.182 10.9701 116.276 8.3008 111.914C5.6966 107.552 3.6458 102.832 2.1484 97.7541C0.7162 92.6111 0 87.1741 0 81.4451V58.5941C0 50.0001 1.5951 42.1221 4.7852 34.961C8.0404 27.7995 12.3698 21.6472 17.7734 16.5039C23.1771 11.2956 29.3945 7.2592 36.4258 4.3946C43.5221 1.4649 50.9115 0 58.5938 0H104.394C109.472 0 114.453 0.651101 119.336 1.9532C124.219 3.2552 128.808 5.1433 133.105 7.6172C137.467 10.0261 141.471 12.9558 145.117 16.4063C148.763 19.8568 151.92 23.7631 154.59 28.125C157.259 32.487 159.31 37.2396 160.742 42.3831C162.239 47.4611 162.988 52.8651 162.988 58.5941V81.4451ZM137.402 58.5941C137.402 53.5811 136.491 49.0231 134.668 44.9221C132.845 40.8203 130.403 37.3047 127.344 34.375C124.349 31.4453 120.866 29.1993 116.894 27.6368C112.923 26.0743 108.756 25.3256 104.394 25.3907H58.5938C54.362 25.3256 50.2279 26.0743 46.1914 27.6368C42.2201 29.1342 38.6719 31.3477 35.5469 34.2774C32.487 37.142 30.013 40.6576 28.125 44.8241C26.3021 48.9261 25.3906 53.5161 25.3906 58.5941V81.4451C25.3906 86.5231 26.3021 91.1131 28.125 95.2151C29.9479 99.3161 32.3893 102.832 35.4492 105.762C38.5091 108.626 42.0248 110.84 45.9961 112.402C50.0326 113.965 54.2318 114.713 58.5938 114.648H104.394C109.407 114.648 113.932 113.835 117.969 112.207C122.07 110.514 125.553 108.203 128.418 105.273C131.282 102.344 133.496 98.8611 135.058 94.8241C136.621 90.7231 137.402 86.2631 137.402 81.4451V58.5941ZM126.367 40.0391C127.344 41.4714 127.995 43.0341 128.32 44.7271C128.646 46.3541 128.646 47.9821 128.32 49.6091C127.995 51.1721 127.344 52.6691 126.367 54.1011C125.456 55.4691 124.251 56.6411 122.754 57.6171L54.1992 103.418C53.0925 104.264 51.9531 104.85 50.7813 105.176C49.6094 105.501 48.405 105.664 47.168 105.664C45.0846 105.664 43.099 105.176 41.211 104.199C39.3229 103.223 37.793 101.823 36.6211 100C35.6445 98.5681 34.9935 97.0381 34.668 95.4101C34.3425 93.7171 34.3099 92.0901 34.5703 90.5271C34.8958 88.9001 35.5143 87.4021 36.4258 86.0351C37.3373 84.6031 38.5417 83.3981 40.0391 82.4221L108.789 36.6211C110.221 35.6446 111.751 34.9935 113.379 34.668C115.071 34.3425 116.699 34.3425 118.262 34.668C119.889 34.9935 121.387 35.612 122.754 36.5235C124.186 37.4349 125.39 38.6068 126.367 40.0391Z" fill="#132030"/>
</svg>
